# xmcd
#
# Track frame offsets: 
#        150
#        25267
#        41070
#        59572
#        80617
#        94780
#        107782
#        125375
#        141367
#        157950
#        172620
#        180295
#        194200
#        205885
#        226237
#
# Disc length: 3143 seconds
#
# Revision: 2
# Processed by: cddbd v1.5.2PL0 Copyright (c) Steve Scherf et al.
# Submitted via: ExactAudioCopy v1.0b3
#
DISCID=c90c450f
DTITLE=Moraes Moreira - Bahião Com H
DYEAR=2000
DGENRE=Brasil-Frevo
TTITLE0=Você E Sua Bicicleta
TTITLE1=É De Ipanema
TTITLE2=Nordeste Cosmopolita
TTITLE3=Banho De Amor
TTITLE4=Instrumento Bom
TTITLE5=Forró Universitário
TTITLE6=Bahião Com H
TTITLE7=Sonhar, Sonhar
TTITLE8=Sintonia
TTITLE9=Mar Vermelho
TTITLE10=Noite De São João - São João Na Estrada - Lenda De São João
TTITLE11=Juazeiro - Boca Do Balão - Preta Pretinha
TTITLE12=O Sanfoneiro Só Tocava Isso - Festa Do Interior - Pife Na Quadr
TTITLE12=ilha
TTITLE13=Bicho Homem
TTITLE14=Sublime Canção
EXTD=
EXTT0=
EXTT1=
EXTT2=
EXTT3=
EXTT4=
EXTT5=
EXTT6=
EXTT7=
EXTT8=
EXTT9=
EXTT10=
EXTT11=
EXTT12=
EXTT13=
EXTT14=
PLAYORDER=
